<svg width="24" height="20" viewBox="0 0 24 20" fill="none" xmlns="http://www.w3.org/2000/svg">
<path d="M2.30353 6.38444C2.60712 6.59867 3.52228 7.23495 5.04903 8.29294C6.57583 9.35093 7.74547 10.1656 8.55799 10.7369C8.64725 10.7995 8.83691 10.9356 9.12704 11.1454C9.41722 11.3554 9.65834 11.5251 9.85019 11.6545C10.0422 11.7839 10.2743 11.929 10.5468 12.0897C10.8191 12.2502 11.0758 12.371 11.3169 12.4509C11.558 12.5315 11.7812 12.5714 11.9865 12.5714H12H12.0135C12.2188 12.5714 12.4421 12.5314 12.6832 12.4509C12.9242 12.371 13.1812 12.2501 13.4533 12.0897C13.7256 11.9288 13.9577 11.7838 14.1497 11.6545C14.3417 11.5251 14.5826 11.3554 14.8729 11.1454C15.163 10.9354 15.3528 10.7995 15.4421 10.7369C16.2634 10.1656 18.3529 8.71461 21.7099 6.38416C22.3616 5.929 22.9062 5.37978 23.3436 4.73689C23.7814 4.09428 24 3.42015 24 2.71487C24 2.1255 23.7878 1.62099 23.3637 1.20139C22.9396 0.781692 22.4373 0.57196 21.8571 0.57196H2.14277C1.45531 0.57196 0.92627 0.804068 0.555734 1.26828C0.185245 1.73259 0 2.31295 0 3.00932C0 3.57181 0.245617 4.18135 0.736616 4.83756C1.22757 5.49382 1.75004 6.00949 2.30353 6.38444Z" fill="#A0A9B7"/>
<path d="M22.6605 7.81709C19.7323 9.79906 17.5088 11.3394 15.9911 12.4377C15.4822 12.8126 15.0694 13.1052 14.7523 13.3149C14.4352 13.5247 14.0136 13.739 13.4867 13.9576C12.96 14.1766 12.4691 14.2857 12.0137 14.2857H12H11.9866C11.5312 14.2857 11.0401 14.1766 10.5134 13.9576C9.98669 13.739 9.56474 13.5247 9.24778 13.3149C8.93091 13.1052 8.51792 12.8126 8.00905 12.4377C6.80362 11.5538 4.58491 10.0134 1.35282 7.81709C0.843756 7.47803 0.392865 7.08939 0 6.65196V17.2856C0 17.8752 0.209731 18.3795 0.629428 18.7991C1.04903 19.2189 1.55359 19.4287 2.14291 19.4287H21.8573C22.4464 19.4287 22.951 19.2189 23.3706 18.7991C23.7904 18.3793 24 17.8753 24 17.2856V6.65196C23.616 7.08034 23.1697 7.46898 22.6605 7.81709Z" fill="#A0A9B7"/>
</svg>
