<svg width="32" height="32" viewBox="0 0 32 32" fill="none" xmlns="http://www.w3.org/2000/svg">
<path fill-rule="evenodd" clip-rule="evenodd" d="M16.9425 5.72378C16.4218 5.20308 15.5776 5.20308 15.0569 5.72378C14.5362 6.24448 14.5362 7.0887 15.0569 7.60939L22.1141 14.6666H6.66634C5.92996 14.6666 5.33301 15.2635 5.33301 15.9999C5.33301 16.7363 5.92996 17.3333 6.66634 17.3333H22.1141L15.0569 24.3904C14.5362 24.9111 14.5362 25.7554 15.0569 26.2761C15.5776 26.7968 16.4218 26.7968 16.9425 26.2761L26.2758 16.9427C26.7965 16.422 26.7965 15.5778 26.2758 15.0571L16.9425 5.72378Z" fill="#596982"/>
<rect x="0.5" y="0.5" width="31" height="31" rx="7.5" stroke="#596982"/>
</svg>
