<svg width="32" height="32" viewBox="0 0 32 32" fill="none" xmlns="http://www.w3.org/2000/svg">
<path fill-rule="evenodd" clip-rule="evenodd" d="M15.0575 5.72378C15.5782 5.20308 16.4224 5.20308 16.9431 5.72378C17.4638 6.24448 17.4638 7.0887 16.9431 7.60939L9.88595 14.6666H25.3337C26.07 14.6666 26.667 15.2635 26.667 15.9999C26.667 16.7363 26.07 17.3333 25.3337 17.3333H9.88595L16.9431 24.3904C17.4638 24.9111 17.4638 25.7554 16.9431 26.2761C16.4224 26.7968 15.5782 26.7968 15.0575 26.2761L5.72419 16.9427C5.20349 16.422 5.20349 15.5778 5.72419 15.0571L15.0575 5.72378Z" fill="#596982"/>
<rect x="-0.5" y="0.5" width="31" height="31" rx="7.5" transform="matrix(-1 0 0 1 31 0)" stroke="#596982"/>
</svg>
